HIERARCHY
ROOT Hips
{
  OFFSET -35.4901 99.2528 17.4586
  CHANNELS 6 Xposition Yposition Zposition Zrotation Xrotation Yrotation
  JOINT LeftUpLeg
  {
    OFFSET 8.64259 1.95398 -2.38835
    CHANNELS 3 Zrotation Xrotation Yrotation
    JOINT LeftLeg
    {
      OFFSET 43.7702 0 0
      CHANNELS 3 Zrotation Xrotation Yrotation
      JOINT LeftFoot
      {
        OFFSET 40.6238 0 0
        CHANNELS 3 Zrotation Xrotation Yrotation
        JOINT LeftToeBase
        {
          OFFSET 12.7242 0 0
          CHANNELS 3 Zrotation Xrotation Yrotation
          End Site
          {
            OFFSET 0 0 0
          }
        }
      }
    }
  }
  JOINT RightUpLeg
  {
    OFFSET -8.2249 1.95398 -2.59336
    CHANNELS 3 Zrotation Xrotation Yrotation
    JOINT RightLeg
    {
      OFFSET 43.5653 0 0
      CHANNELS 3 Zrotation Xrotation Yrotation
      JOINT RightFoot
      {
        OFFSET 40.6238 0 0
        CHANNELS 3 Zrotation Xrotation Yrotation
        JOINT RightToeBase
        {
          OFFSET 12.7242 0 0
          CHANNELS 3 Zrotation Xrotation Yrotation
          End Site
          {
            OFFSET 0 0 0
          }
        }
      }
    }
  }
  JOINT Spine
  {
    OFFSET 0.165834 0.87714 6.61349
    CHANNELS 3 Zrotation Xrotation Yrotation
    JOINT Spine1
    {
      OFFSET 7.38963 1.71661e-005 0
      CHANNELS 3 Zrotation Xrotation Yrotation
      JOINT Spine2
      {
        OFFSET 11.9445 1.14441e-005 0
        CHANNELS 3 Zrotation Xrotation Yrotation
        JOINT Spine3
        {
          OFFSET 14.7254 4.19617e-005 0
          CHANNELS 3 Zrotation Xrotation Yrotation
          JOINT Spine4
          {
            OFFSET 10.9679 0 0
            CHANNELS 3 Zrotation Xrotation Yrotation
            JOINT RightShoulder
            {
              OFFSET 2.46616 -1.6653 3.69651
              CHANNELS 3 Zrotation Xrotation Yrotation
              JOINT RightArm
              {
                OFFSET 13.0012 0 0
                CHANNELS 3 Zrotation Xrotation Yrotation
                JOINT RightForeArm
                {
                  OFFSET 28.7848 1.52588e-005 0
                  CHANNELS 3 Zrotation Xrotation Yrotation
                  JOINT RightHand
                  {
                    OFFSET 26.5688 1.52588e-005 0
                    CHANNELS 3 Zrotation Xrotation Yrotation
                    End Site
                    {
                      OFFSET 0 0 0
                    }
                  }
                }
              }
            }
            JOINT LeftShoulder
            {
              OFFSET 2.38034 -1.29275 -3.7523
              CHANNELS 3 Zrotation Xrotation Yrotation
              JOINT LeftArm
              {
                OFFSET 16.3182 6.10351e-005 0
                CHANNELS 3 Zrotation Xrotation Yrotation
                JOINT LeftForeArm
                {
                  OFFSET 27.0901 0 0
                  CHANNELS 3 Zrotation Xrotation Yrotation
                  JOINT LeftHand
                  {
                    OFFSET 24.5451 1.52588e-005 0
                    CHANNELS 3 Zrotation Xrotation Yrotation
                    End Site
                    {
                      OFFSET 0 0 0
                    }
                  }
                }
              }
            }
            JOINT Neck
            {
              OFFSET 5.0226 -0.0266342 0
              CHANNELS 3 Zrotation Xrotation Yrotation
              JOINT Head
              {
                OFFSET 6.69364 2.86102e-005 0
                CHANNELS 3 Zrotation Xrotation Yrotation
                End Site
                {
                  OFFSET 0 0 0
                }
              }
            }
          }
        }
      }
    }
  }
}
MOTION
Frames:	15
Frame Time:	0.0416667
-327.198 80.6667 333.73 69.703 46.7036 96.8216 -164.959 55.545 74.827 -59.234 9.90075 -6.5463 74.8055 6.49481 -0.64474 19.0793 3.14399 -3.62064 171.012 -7.82026 82.5604 -40.1713 -17.191 -5.39394 59.9339 -0.127782 -0.629854 73.1664 -2.40476 -5.33727 2.2877 8.14244 -88.6381 10.539 5.18199 2.24327 -1.12313 5.27567 2.01254 -23.7034 4.26835 3.69837 -3.69077 4.26836 3.69836 92.1419 -17.5778 -107.416 26.2497 -1.84133 -29.0474 4.68971 -12.7467 -20.0151 -32.7407 3.23409 -17.6291 -86.3677 -38.2896 82.131 -27.466 4.7122 12.3013 18.2735 24.878 -27.5611 3.52573 -0.295847 -8.35378 47.5533 -8.9947 -0.770509 -17.7302 -7.7241 -1.72189 
-319.668 79.7214 326.24 72.5973 50.8563 94.3522 -166.017 48.3099 74.5376 -66.3241 10.9904 -4.74635 82.4821 9.84719 -0.203916 28.301 4.45922 -7.38001 173.671 -0.405702 82.836 -63.0095 -19.0137 -4.28268 64.3311 -2.40454 -2.4529 78.6431 -3.28601 -10.3419 1.69121 8.44952 -88.5327 9.9249 4.03697 2.58419 -1.742 4.14674 2.40387 -24.2888 3.07414 3.67786 -4.27617 3.07413 3.67785 90.1324 -22.8006 -109.565 31.5052 -4.73907 -18.7471 -1.84197 -19.394 -25.6248 -26.2286 1.75411 -15.5315 -86.0124 -43.6686 83.7169 -25.0192 7.5557 -2.92807 21.3409 23.5831 -33.8456 5.27229 -0.497615 -10.3353 48.0339 -10.758 -4.551 -15.3247 -7.4027 -0.541398 
-312.51 79.4539 318.465 73.7005 53.5089 92.6242 -168.062 39.6393 75.7689 -68.4691 7.19757 -4.02265 91.4039 12.114 -6.48024 32.0703 5.32977 -9.9044 178.256 15.8093 82.9042 -86.2099 -9.26375 -2.9974 76.3414 -8.82694 -4.66009 68.9236 -1.96262 -15.5162 1.25071 8.63579 -88.3497 9.549 3.23754 3.02425 -2.12107 3.36744 2.87885 -24.6452 2.17969 3.85671 -4.63257 2.17968 3.8567 89.7661 -27.0489 -108.418 38.5199 -8.90924 -5.35698 -0.108177 -21.0975 -23.9521 -27.0437 1.42635 -13.9173 -86.5214 -48.0387 83.6401 -17.9086 14.6 -25.3328 26.22 25.3773 -41.5566 9.39216 -0.0431388 -4.66079 46.0514 -11.6742 -7.51727 -12.728 -6.76128 -0.491257 
-304.737 79.4514 310.544 76.4442 53.7559 93.1282 -169.962 28.7193 82.2327 -67.333 7.01409 -2.88561 99.1579 13.4207 -11.1852 35.1711 3.5849 -7.52503 -174.279 32.9631 82.4042 -99.2413 -0.195691 -2.16295 85.1463 -13.5403 -3.90936 50.2769 1.81637 -16.4484 0.8207 8.70399 -88.6226 9.42971 2.25599 2.55739 -2.24148 2.36634 2.45565 -24.7642 1.3835 3.11675 -4.75152 1.38352 3.11676 91.0621 -28.0935 -105.337 47.2907 -9.48339 11.2365 -2.46621 -26.4401 -25.3771 -27.9268 1.08032 -12.889 -87.0295 -45.3686 82.3838 -9.60341 19.6116 -45.1652 33.8461 19.5931 -54.3306 2.21008 0.19701 2.83601 41.6802 -10.3946 -10.3955 -9.80581 -4.49851 -0.350871 
-295.958 80.059 302.491 74.727 57.5096 100.268 -171.789 18.7298 91.3765 -61.5051 10.6898 -0.18913 104.09 15.4777 -10.8683 34.2114 3.09162 -6.37635 -175.131 49.6151 85.0229 -96.2717 3.16274 -1.66981 91.3814 -15.5157 -1.64389 24.3976 3.76389 -8.42135 -0.441678 8.42989 -89.4345 10.016 -0.622916 1.17383 -1.65531 -0.570661 1.20011 -24.1888 -0.946904 0.932375 -4.1761 -0.946887 0.932381 92.362 -24.8917 -103.788 53.4991 -7.26681 29.2042 -10.3976 -29.6951 -33.9421 -26.9957 0.847814 -12.9739 -86.6565 -37.3066 81.4259 -5.40886 15.8687 -56.121 39.4794 10.0885 -66.1501 4.72444 -0.00412297 -2.97652 37.6486 -7.08761 -13.2878 -10.3949 -0.640633 2.75569 
-286.071 83.1081 291.722 75.8597 55.7948 103.503 -171.163 3.07834 97.8548 -43.435 19.6744 1.32866 89.5315 13.6374 0.608937 47.409 1.72646 -7.00779 -177.21 56.1903 88.7722 -77.3376 1.12424 -1.87828 88.5065 -13.4101 -0.359526 10.7358 -0.111248 2.26682 -1.44406 8.07827 -90.1339 10.7208 -2.93748 0.00246017 -0.946709 -2.93454 0.131851 -23.5075 -2.8023 -0.881209 -3.49484 -2.8023 -0.881213 92.3882 -21.147 -105.209 53.5874 -5.92499 43.9861 -16.3656 -26.4669 -42.5981 -26.0817 1.39788 -16.0208 -85.2269 -29.7629 82.4507 -6.10303 11.5635 -55.3982 41.133 4.64638 -72.3617 12.3596 -1.0598 -12.2106 34.0176 -1.0753 -14.1096 -14.241 4.6551 5.22627 
-274.689 86.8852 279.192 79.4319 49.9521 105.093 -170.436 -12.6779 99.3968 -28.3743 21.2493 3.70201 62.8099 1.96951 5.40439 42.9526 3.91234 -9.96112 -179.491 51.5493 96.2565 -50.4796 -4.8185 -1.44488 79.4134 -9.20985 0.81636 17.4396 -0.821869 2.98433 -1.71577 7.93493 -90.9579 10.9853 -3.85956 -1.5408 -0.680592 -3.92362 -1.36924 -23.2434 -3.21803 -2.63021 -3.23073 -3.21803 -2.63021 91.7414 -18.2807 -108.039 51.5592 -4.56471 51.4109 -20.0626 -23.7757 -47.9667 -26.6877 1.68456 -17.0745 -84.5085 -25.8426 83.0156 -5.56297 12.9467 -48.7099 41.6183 0.278416 -76.3722 9.65582 -1.32089 -15.998 34.0302 4.43352 -12.0012 -20.5608 8.449 6.55747 
-263.726 88.3116 267.348 80.6219 46.9593 104.115 -172.437 -14.55 96.7682 -36.7367 25.6432 5.77348 56.0619 -1.41521 4.85749 27.373 4.23907 -6.7755 179.734 45.5999 97.8104 -37.2401 -10.7297 -0.985296 78.7512 -9.7527 -1.83565 18.1863 -0.724328 2.76253 -1.66071 7.738 -91.2544 11.3599 -3.88938 -2.10888 -0.30663 -3.97837 -1.93551 -22.8599 -3.076 -3.18054 -2.84728 -3.07598 -3.18055 88.9097 -21.3669 -113.012 43.97 3.19649 51.748 -18.5094 -22.7141 -49.0397 -30.0968 2.58772 -18.8687 -84.4211 -26.817 83.4212 -3.57221 20.0001 -47.1365 42.234 -1.59403 -76.9007 9.00339 -1.16293 -15.1178 32.9169 6.9496 -8.84413 -22.2012 9.49778 5.46356 
-253.694 87.4578 256.882 85.4505 45.3936 99.1654 -171.601 -7.92591 94.768 -59.8034 22.1959 4.73333 58.7044 -0.119931 5.13514 33.5698 4.05281 -8.00638 177.015 38.5869 98.3108 -40.2204 -10.1824 -0.0297177 74.737 -7.05667 -1.53218 24.17 -1.03451 3.09465 -1.336 7.79844 -91.2029 11.2456 -3.21849 -2.07713 -0.422839 -3.30678 -1.9334 -22.9651 -2.44566 -2.94831 -2.95248 -2.44569 -2.94831 89.9745 -25.5102 -108.656 39.0461 5.52843 38.5579 -15.3287 -23.1898 -45.8437 -34.3827 2.53579 -16.5485 -85.7232 -37.0862 83.0219 1.93987 30.3813 -41.1711 37.9957 -3.98316 -75.8336 9.57554 -1.25323 -15.4467 29.7246 7.88141 -4.96483 -19.2695 8.91304 4.22982 
-243.54 86.1517 247.156 85.7254 43.9841 102.496 -168.728 8.61126 101.534 -83.649 8.41452 5.1321 65.7399 3.42218 6.65908 32.3153 3.56682 -6.89945 173.88 34.5199 102.003 -49.0931 -13.3459 2.47283 77.6157 -8.57772 -2.1455 14.9782 -1.53761 4.53746 -0.786471 7.66452 -91.8316 11.4944 -2.42052 -3.40375 -0.178508 -2.5679 -3.29405 -22.6838 -1.28662 -3.97301 -2.67113 -1.28662 -3.97302 91.4639 -27.657 -104.674 37.7052 9.00958 21.1436 -22.9599 -27.954 -52.5506 -31.9931 1.92167 -16.2857 -84.8229 -48.3176 86.3132 1.20815 38.023 -28.5623 41.5341 -1.47074 -72.6813 10.4278 -1.30331 -15.1404 25.8712 9.09694 1.46966 -14.4895 7.95525 2.40009 
-234.109 84.4803 237.761 88.0483 39.9579 102.058 -168.775 29.8742 99.696 -97.2857 -0.345088 5.63189 71.1659 6.05314 7.22949 25.1718 4.29926 -6.39112 176.066 26.1215 103.091 -55.2755 -16.007 1.58839 91.0712 -16.0079 -4.58212 12.9443 -1.94171 5.35169 0.120443 7.74691 -91.9135 11.3564 -0.652554 -3.74496 -0.319608 -0.816604 -3.71269 -22.8123 0.502307 -3.76801 -2.79971 0.502313 -3.76802 91.3945 -28.7553 -104.407 38.5606 8.68966 0.0462983 -24.2479 -24.5042 -57.485 -30.1318 2.20087 -17.8438 -83.6218 -49.6691 88.2919 -12.6613 37.5611 -0.0227412 45.5769 -4.82547 -75.4294 12.1474 -1.3239 -13.9379 23.8696 7.88097 4.60576 -12.7124 5.91766 0.882674 
-224.111 84.8814 226.787 86.9725 39.7058 99.0248 -172.609 45.3705 94.3854 -92.8634 -0.466493 4.99649 74.4038 7.73209 7.3424 28.8963 6.64843 -11.2101 177.442 12.8502 99.4633 -51.2561 -13.1661 -1.00619 99.8571 -18.2278 0.30984 14.8891 -1.31787 4.02025 1.00795 7.42536 -91.3598 12.026 1.36203 -2.86684 0.352446 1.23462 -2.92396 -22.1701 2.16037 -2.32536 -2.15746 2.16038 -2.32536 91.9019 -24.4894 -104.961 38.5708 7.45474 -11.0618 -28.3583 -20.7009 -67.7943 -35.644 2.67006 -17.3296 -82.2364 -46.954 90.1656 -22.9361 40.5328 25.3075 39.608 -15.8103 -82.4645 8.70228 -1.20484 -16.0116 20.3882 3.72336 6.75563 -12.7407 1.70909 -2.36634 
-212.535 89.3794 213.812 90.4862 40.892 91.4675 -175.526 44.0731 89.3015 -67.7914 -1.74203 1.69964 75.7348 8.17543 4.30655 26.2174 4.35499 -6.75129 175.054 -5.46037 91.3321 -37.6911 -17.6952 -4.40137 81.6054 -10.3226 -3.53551 31.7851 -2.90816 8.05179 2.16286 7.44866 -90.3721 12.0047 4.12471 -1.19105 0.339597 4.06831 -1.3717 -22.2483 4.29164 0.105914 -2.23561 4.29165 0.105914 93.7811 -20.5666 -102.19 39.4981 8.93209 -9.11085 -33.2915 -14.9319 -81.3352 -36.7288 2.45141 -16.2988 -82.7152 -40.2963 88.7159 -28.769 40.9473 38.3283 40.8005 -21.8832 -87.1456 8.67343 -1.44539 -18.3135 16.3059 -4.37264 1.25851 -13.5302 -4.3269 -2.85342 
-199.974 94.1413 199.81 94.4447 41.0224 83.9689 -179.565 31.1825 86.4123 -30.1874 1.5573 -0.720966 66.2534 4.66635 2.6606 29.5611 3.19611 -5.76901 169.008 -16.7464 81.844 -31.5635 -25.8402 -6.91905 57.8787 1.086 -2.0617 27.4639 -2.90948 7.8078 3.00188 7.57578 -89.5741 11.7238 6.17002 0.194543 0.0676165 6.17261 -0.0782734 -22.5759 5.82521 2.04628 -2.5633 5.82521 2.04627 95.2454 -14.9175 -100.711 41.0073 7.43387 -2.52781 -29.1093 -8.79947 -88.5202 -34.3366 3.54308 -20.0946 -83.4342 -35.0167 86.7792 -33.7808 36.7701 46.4109 43.7769 -25.8631 -90.5731 12.2657 -1.84888 -18.0039 11.7392 -9.59423 -3.92836 -15.0046 -8.02232 -4.00981 
-188.559 94.7169 187.743 93.5048 41.3778 87.9331 -179.67 26.1711 89.55 -11.1386 10.4054 -0.449546 64.8815 4.18046 1.59896 25.2154 -0.32498 0.86383 170.194 -19.26 85.1177 -37.1877 -21.8237 -5.0068 60.4047 0.0274084 -1.21751 22.3581 -1.62212 4.49725 2.98598 7.20979 -89.8054 12.4902 6.02598 -0.298785 0.833224 6.00696 -0.564693 -21.8106 5.8362 1.53245 -1.79792 5.83621 1.53245 94.8574 -14.1477 -102.048 40.3247 1.5225 2.03817 -29.8136 -4.26697 -94.2195 -32.4019 3.36714 -20.1713 -83.3892 -36.1245 86.9901 -36.5626 27.8234 53.2179 44.1349 -28.3841 -95.1567 12.5987 -1.91841 -18.2941 6.28747 -9.18511 -6.44842 -13.5419 -7.45477 -3.51613 
